<svg xmlns="http://www.w3.org/2000/svg" viewBox="0 0 24 30" x="0px" y="0px"><path d="M10,16.55a.28.28,0,0,0,.15,0,.33.33,0,0,0,.19-.06.34.34,0,0,0,.16-.29V7.66a.34.34,0,0,0-.17-.3.32.32,0,0,0-.34,0L5.63,9.65H2.84a.35.35,0,0,0-.35.35v4.15a.36.36,0,0,0,.11.25.35.35,0,0,0,.24.1H5.67Zm-6.78-6.2H5.72a.47.47,0,0,0,.16,0L9.77,8.24v7.44L5.9,13.83a.42.42,0,0,0-.15,0H3.19Z"/><path d="M13.16,14.23a.36.36,0,0,0,.27.12.34.34,0,0,0,.23-.08,3.06,3.06,0,0,0,0-4.65.36.36,0,0,0-.49,0,.35.35,0,0,0,0,.5A2.36,2.36,0,0,1,14,12a2.34,2.34,0,0,1-.83,1.79A.36.36,0,0,0,13.16,14.23Z"/><path d="M16,17a.4.4,0,0,0,.23-.08,6.53,6.53,0,0,0,0-9.94.35.35,0,0,0-.49,0,.35.35,0,0,0,0,.5,5.83,5.83,0,0,1,0,8.88A.35.35,0,0,0,16,17Z"/><path d="M18.93,4.6a.35.35,0,0,0-.45.53,8.95,8.95,0,0,1,0,13.63.35.35,0,0,0,0,.5.34.34,0,0,0,.26.12.4.4,0,0,0,.23-.08,9.64,9.64,0,0,0,0-14.7Z"/><text x="0" y="39" fill="#000000" font-size="5px" font-weight="bold" font-family="'Helvetica Neue', Helvetica, Arial-Unicode, Arial, Sans-serif">Created by bambaleq</text><text x="0" y="44" fill="#000000" font-size="5px" font-weight="bold" font-family="'Helvetica Neue', Helvetica, Arial-Unicode, Arial, Sans-serif">from the Noun Project</text></svg>